<svg xmlns="http://www.w3.org/2000/svg" id="Logo" fill="red" viewBox="17.318 5.824 402.048 73.556" x="0px" y="0px" width="402.048px" height="73.556px" xmlns:xml="http://www.w3.org/XML/1998/namespace" xml:space="preserve" enable-background="new 17.318 5.824 402.048 73.556" xmlns:xlink="http://www.w3.org/1999/xlink" version="1.1" xmlns:xml="http://www.w3.org/XML/1998/namespace">
                  <path d="M 321.513 5.824 H 256.91 v 12.878 h 51.478 l -49.294 44.581 c -8.227 7.023 -2.872 16.096 3.958 16.096 h 65.337 V 66.472 h -52.117 l 48.964 -44.554 C 333.52 14.473 328.535 5.824 321.513 5.824"/>
                  <rect x="226.517" y="5.824" width="14.426" height="73.556"/>
                  <path d="M 104.296 5.824 h -71.36 c -8.576 0 -15.618 7.012 -15.618 15.588 v 57.967 H 31.14 V 23.743 c 0 -2.711 2.208 -5.041 4.92 -5.041 h 25.31 v 60.677 h 14.428 V 18.702 h 25.312 c 2.712 0 4.919 2.329 4.919 5.041 v 55.636 h 13.86 V 21.416 C 119.888 12.841 112.872 5.824 104.296 5.824"/>
                  <path d="M 148.765 23.614 c 0 -2.712 2.199 -4.912 4.911 -4.912 h 55.909 V 5.824 h -58.236 c -8.576 0 -15.592 7.016 -15.592 15.592 v 42.37 c 0 8.576 7.017 15.592 15.592 15.592 h 58.236 V 66.5 h -55.909 c -2.711 0 -4.911 -2.199 -4.911 -4.912 V 49.042 h 58.43 V 36.117 h -58.43 V 23.614 Z"/>
                  <path d="M 405.506 5.824 v 55.637 c 0 2.71 -2.22 5.039 -4.931 5.039 h -39.77 c -2.711 0 -4.892 -2.328 -4.892 -5.039 V 5.824 h -13.86 v 57.963 c 0 8.576 7.018 15.592 15.592 15.592 h 46.127 c 8.575 0 15.592 -7.017 15.592 -15.592 V 5.824 H 405.506 Z"/>
                  </svg>